<mxfile host="app.diagrams.net" modified="2023-10-17T14:35:39.682Z" agent="Mozilla/5.0 (Windows NT 10.0; Win64; x64) AppleWebKit/537.36 (KHTML, like Gecko) Chrome/118.0.0.0 Safari/537.36" version="22.0.4" etag="d-RgSL8K09HO1-nZFfE7" type="github">
  <diagram name="페이지-1" id="bQHTxuDkJo2wBDBFcnoV">
    <mxGraphModel>
      <root>
        <mxCell id="0" />
        <mxCell id="1" parent="0" />
      </root>
    </mxGraphModel>
  </diagram>
</mxfile>
